<svg width="50" height="50" viewBox="0 0 50 50" fill="none" xmlns="http://www.w3.org/2000/svg">
<g clip-path="url(#clip0_27_8043)">
<mask id="mask0_27_8043" style="mask-type:luminance" maskUnits="userSpaceOnUse" x="0" y="0" width="50" height="50">
<path d="M50 0H0V50H50V0Z" fill="white"/>
</mask>
<g mask="url(#mask0_27_8043)">
<path d="M37.1599 16.8398H12.7863C12.526 16.8398 12.2763 16.9433 12.0922 17.1274C11.9081 17.3115 11.8047 17.5611 11.8047 17.8215V38.2609C11.8048 38.5212 11.9083 38.7708 12.0923 38.9548C12.2764 39.1388 12.526 39.2422 12.7863 39.2422H17.132V46.1303C17.132 46.8978 17.4369 47.6338 17.9796 48.1765C18.5223 48.7192 19.2584 49.0241 20.0259 49.0241C20.7934 49.0241 21.5294 48.7192 22.0721 48.1765C22.6148 47.6338 22.9197 46.8978 22.9197 46.1303V39.2422H26.967V46.1303C26.967 46.8978 27.2719 47.6338 27.8146 48.1765C28.3573 48.7192 29.0933 49.0241 29.8608 49.0241C30.6283 49.0241 31.3644 48.7192 31.9071 48.1765C32.4498 47.6338 32.7547 46.8978 32.7547 46.1303V39.2422H37.1603C37.4206 39.2422 37.6703 39.1388 37.8544 38.9547C38.0385 38.7706 38.1419 38.5209 38.1419 38.2605V17.8211C38.1417 17.5608 38.0382 17.3112 37.854 17.1271C37.6699 16.9431 37.4202 16.8398 37.1599 16.8398Z" fill="#99AD47"/>
<path d="M7.679 16.8359C6.91151 16.8359 6.17545 17.1408 5.63274 17.6835C5.09004 18.2262 4.78516 18.9623 4.78516 19.7298V31.4834C4.78516 32.2509 5.09004 32.987 5.63274 33.5297C6.17545 34.0724 6.91151 34.3772 7.679 34.3772C8.4465 34.3772 9.18256 34.0724 9.72526 33.5297C10.268 32.987 10.5729 32.2509 10.5729 31.4834V19.7298C10.5728 18.9623 10.2679 18.2263 9.72523 17.6836C9.18254 17.1409 8.44649 16.836 7.679 16.8359Z" fill="#99AD47"/>
<path d="M42.2687 16.8359C41.5012 16.836 40.7652 17.1409 40.2225 17.6836C39.6799 18.2263 39.375 18.9623 39.375 19.7298V31.4834C39.375 32.2509 39.6799 32.987 40.2226 33.5297C40.7653 34.0724 41.5014 34.3772 42.2688 34.3772C43.0363 34.3772 43.7724 34.0724 44.3151 33.5297C44.8578 32.987 45.1627 32.2509 45.1627 31.4834V19.7298C45.1627 19.3497 45.0878 18.9734 44.9424 18.6223C44.797 18.2712 44.5838 17.9522 44.315 17.6835C44.0463 17.4147 43.7273 17.2016 43.3761 17.0562C43.025 16.9107 42.6487 16.8359 42.2687 16.8359Z" fill="#99AD47"/>
<path d="M12.986 15.4063H36.9075C37.0537 15.4062 37.1981 15.3735 37.3301 15.3105C37.4621 15.2475 37.5783 15.1559 37.6704 15.0423C37.7625 14.9288 37.8281 14.7961 37.8624 14.6539C37.8968 14.5118 37.899 14.3638 37.8688 14.2207C37.4798 12.382 36.7032 10.6473 35.5909 9.13241C34.4786 7.61749 33.0562 6.35708 31.4184 5.43523L33.4634 1.74548C33.5238 1.62601 33.5355 1.48778 33.4962 1.35983C33.4568 1.23187 33.3694 1.12414 33.2523 1.05926C33.1352 0.994374 32.9976 0.977382 32.8682 1.01185C32.7388 1.04632 32.6279 1.12957 32.5586 1.24411L30.4981 4.96179C28.7579 4.1577 26.8638 3.74125 24.9467 3.74125C23.0297 3.74125 21.1355 4.1577 19.3953 4.96179L17.3349 1.24402C17.3035 1.18173 17.26 1.12642 17.2067 1.0814C17.1535 1.03637 17.0917 1.00257 17.0251 0.982007C16.9585 0.961446 16.8884 0.954554 16.8191 0.961745C16.7497 0.968937 16.6826 0.990062 16.6216 1.02386C16.5606 1.05765 16.5071 1.10341 16.4642 1.1584C16.4214 1.21339 16.3901 1.27647 16.3722 1.34385C16.3543 1.41123 16.3502 1.48153 16.3602 1.55053C16.3702 1.61953 16.394 1.68581 16.4302 1.74538L18.4755 5.43513C16.8377 6.357 15.4152 7.61742 14.3029 9.13236C13.1906 10.6473 12.4141 12.382 12.025 14.2207C11.9949 14.3637 11.997 14.5117 12.0313 14.6539C12.0656 14.796 12.1312 14.9287 12.2233 15.0423C12.3154 15.1558 12.4316 15.2475 12.5635 15.3104C12.6955 15.3734 12.8398 15.4062 12.986 15.4063ZM32.0847 9.90739C32.0847 10.1274 32.0194 10.3425 31.8972 10.5254C31.775 10.7083 31.6012 10.8509 31.398 10.9351C31.1947 11.0193 30.971 11.0413 30.7552 10.9984C30.5395 10.9555 30.3412 10.8496 30.1857 10.694C30.0301 10.5384 29.9242 10.3402 29.8812 10.1244C29.8383 9.90863 29.8603 9.68496 29.9445 9.4817C30.0287 9.27843 30.1713 9.1047 30.3542 8.98247C30.5372 8.86023 30.7522 8.79499 30.9723 8.79499C31.1184 8.79499 31.263 8.82377 31.398 8.87968C31.533 8.93559 31.6556 9.01754 31.7589 9.12084C31.8622 9.22415 31.9441 9.34679 32 9.48176C32.0559 9.61674 32.0847 9.7613 32.0847 9.90739ZM18.9206 8.79499C19.1406 8.79499 19.3557 8.86023 19.5386 8.98247C19.7216 9.1047 19.8641 9.27843 19.9483 9.4817C20.0325 9.68496 20.0546 9.90863 20.0116 10.1244C19.9687 10.3402 19.8628 10.5384 19.7072 10.694C19.5516 10.8496 19.3534 10.9555 19.1376 10.9984C18.9218 11.0413 18.6982 11.0193 18.4949 10.9351C18.2916 10.8509 18.1179 10.7083 17.9957 10.5254C17.8734 10.3425 17.8082 10.1274 17.8082 9.90739C17.8082 9.76129 17.837 9.61661 17.8929 9.48164C17.9489 9.34666 18.0309 9.22402 18.1342 9.12073C18.2375 9.01744 18.3602 8.93552 18.4952 8.87965C18.6302 8.82377 18.7749 8.79504 18.921 8.79509L18.9206 8.79499Z" fill="#99AD47"/>
</g>
</g>
<defs>
<clipPath id="clip0_27_8043">
<rect width="50" height="50" fill="white"/>
</clipPath>
</defs>
</svg>
